<svg width="256" height="256" viewBox="0 0 256 256" fill="none" xmlns="http://www.w3.org/2000/svg">
  <defs>
    <linearGradient id="bg" x1="36" y1="28" x2="220" y2="236" gradientUnits="userSpaceOnUse">
      <stop stop-color="#22103F" />
      <stop offset="0.52" stop-color="#4A2A7A" />
      <stop offset="1" stop-color="#7B4DCC" />
    </linearGradient>
    <linearGradient id="gem" x1="128" y1="54" x2="128" y2="194" gradientUnits="userSpaceOnUse">
      <stop stop-color="#F5E9FF" />
      <stop offset="0.48" stop-color="#D7B6FF" />
      <stop offset="1" stop-color="#A56CFF" />
    </linearGradient>
    <linearGradient id="flare" x1="73" y1="66" x2="186" y2="196" gradientUnits="userSpaceOnUse">
      <stop stop-color="#FFFFFF" stop-opacity="0.78" />
      <stop offset="1" stop-color="#FFFFFF" stop-opacity="0" />
    </linearGradient>
  </defs>

  <rect x="20" y="20" width="216" height="216" rx="56" fill="url(#bg)" />
  <rect x="20.75" y="20.75" width="214.5" height="214.5" rx="55.25" stroke="#D7C0FF" stroke-opacity="0.24" stroke-width="1.5" />

  <path d="M128 50L179 96L156 182H100L77 96L128 50Z" fill="url(#gem)" />
  <path d="M128 50L179 96L128 115L77 96L128 50Z" fill="#FFF7FF" fill-opacity="0.72" />
  <path d="M100 182L128 115L156 182H100Z" fill="#8B57E3" fill-opacity="0.92" />
  <path d="M77 96L100 182L128 115L77 96Z" fill="#B582FF" fill-opacity="0.76" />
  <path d="M179 96L156 182L128 115L179 96Z" fill="#9D67F7" fill-opacity="0.84" />
  <path d="M96 161L128 84L160 161" stroke="#12071F" stroke-width="16" stroke-linecap="round" stroke-linejoin="round" />
  <path d="M108 136H148" stroke="#12071F" stroke-width="14" stroke-linecap="round" />
  <path d="M82 69C114 57 146 58 182 89" stroke="url(#flare)" stroke-width="10" stroke-linecap="round" />
</svg>
